<svg xmlns="http://www.w3.org/2000/svg" width="1024" height="1024" viewBox="0 0 1024 1024">
  <rect x="96" y="96" width="832" height="832" rx="184" fill="#2643d0"/>
  <g transform="translate(288 288) scale(18.6667)" fill="none" stroke="#ffffff" stroke-width="1.5" stroke-linecap="round" stroke-linejoin="round">
    <path d="m21.64 3.64-1.28-1.28a1.21 1.21 0 0 0-1.72 0L2.36 18.64a1.21 1.21 0 0 0 0 1.72l1.28 1.28a1.2 1.2 0 0 0 1.72 0L21.64 5.36a1.2 1.2 0 0 0 0-1.72"/>
    <path d="m14 7 3 3"/>
    <path d="M5 6v4"/>
    <path d="M19 14v4"/>
    <path d="M10 2v2"/>
    <path d="M7 8H3"/>
    <path d="M21 16h-4"/>
    <path d="M11 3H9"/>
  </g>
</svg>
